<?xml version="1.0" standalone="no"?>
<!DOCTYPE svg PUBLIC "-//W3C//DTD SVG 20010904//EN"
 "http://www.w3.org/TR/2001/REC-SVG-20010904/DTD/svg10.dtd">
<svg version="1.0" xmlns="http://www.w3.org/2000/svg"
 width="512.000000pt" height="512.000000pt" viewBox="0 0 512.000000 512.000000"
 preserveAspectRatio="xMidYMid meet">
<metadata>
Created by potrace 1.14, written by Peter Selinger 2001-2017
</metadata>
<g transform="translate(0.000000,512.000000) scale(0.100000,-0.100000)"
fill="#000000" stroke="none">
<path d="M8 5108 c0 -2 -2 -1152 -3 -2555 l-1 -2553 2556 0 2557 0 -2 2548
c-1 1401 -3 2550 -3 2555 -2 6 -5099 11 -5104 5z m5098 -2555 l1 -2543 -2547
0 -2546 0 0 2545 0 2545 2545 -2 2546 -3 1 -2542z"/>
<path d="M1336 4598 c11 -19 52 -75 99 -135 22 -28 51 -66 65 -84 14 -18 83
-107 153 -198 123 -160 140 -182 199 -260 15 -20 31 -40 36 -46 4 -5 100 -129
212 -275 112 -146 233 -303 269 -350 36 -47 135 -175 219 -285 84 -110 161
-209 170 -220 9 -11 45 -58 81 -104 l64 -85 -25 -20 c-14 -12 -42 -34 -63 -51
-21 -16 -43 -35 -49 -40 -11 -10 -379 -308 -511 -414 -38 -31 -76 -62 -83 -68
-7 -7 -68 -57 -135 -110 -67 -54 -124 -100 -127 -103 -3 -3 -27 -24 -55 -45
-27 -22 -55 -44 -61 -50 -7 -5 -26 -21 -44 -35 -17 -14 -44 -35 -58 -48 -15
-12 -52 -42 -82 -65 -30 -23 -59 -47 -65 -53 -5 -6 -44 -38 -85 -70 -41 -32
-86 -69 -100 -80 -14 -12 -140 -114 -280 -228 -294 -237 -294 -237 -380 -308
-36 -30 -112 -92 -170 -138 -134 -108 -140 -113 -140 -120 0 -9 2707 -4 2745
4 17 4 67 13 112 22 236 43 518 179 713 343 122 104 263 268 327 381 14 25 33
56 42 70 35 51 132 296 145 361 2 13 18 83 36 154 28 115 42 179 70 305 4 19
35 154 68 300 83 359 87 386 86 580 0 180 -23 317 -81 490 -30 90 -56 148
-140 311 -7 15 -20 32 -28 39 -8 7 -15 17 -15 22 0 8 -34 61 -55 83 -5 7 -21
26 -35 44 -42 54 -151 165 -220 222 -208 174 -506 310 -755 345 -27 3 -59 9
-70 12 -11 4 -467 8 -1013 9 -810 3 -992 1 -986 -9z"/>
</g>
</svg>
