<svg xmlns="http://www.w3.org/2000/svg" width="72" height="72" viewBox="0 0 72 72">
    <defs>
        <linearGradient id="mbio4svefa" x1="0%" x2="100%" y1="93.112%" y2="6.888%">
            <stop offset="0%" stop-color="#FF444F"/>
            <stop offset="100%" stop-color="#FF6444"/>
        </linearGradient>
    </defs>
    <g fill="none" fill-rule="evenodd">
        <g>
            <g>
                <g>
                    <g transform="translate(-403.000000, -853.000000) translate(0.000000, 673.000000) translate(349.000000, 180.000000) translate(54.000000, 0.000000)">
                        <circle cx="36" cy="36" r="36" fill="#F5F7FA"/>
                        <g fill="url(#mbio4svefa)" transform="translate(12.000000, 12.000000)">
                            <path d="M42 4.5c.511 0 1.013.043 1.5.125V6.15C43.017 6.052 42.515 6 42 6c-4.142 0-7.5 3.358-7.5 7.5 0 4.142 3.358 7.5 7.5 7.5.514 0 1.016-.052 1.5-.15v1.525c-.487.082-.989.125-1.5.125-4.46 0-8.161-3.243-8.875-7.5H19.35c-.219 1.076-.667 2.068-1.292 2.923l5.643 10.58L24 28.5c7.456 0 13.5 6.044 13.5 13.5h6.75c.414 0 .75.336.75.75s-.336.75-.75.75H3.75c-.414 0-.75-.336-.75-.75s.336-.75.75-.75h6.75c0-3.912 1.664-7.435 4.322-9.9l-6.34-11.975C6.112 18.865 4.5 16.371 4.5 13.5 4.5 9.358 7.858 6 12 6c3.076 0 5.72 1.851 6.876 4.5h14.636c1.235-3.495 4.57-6 8.488-6zm-18 36c-.828 0-1.5.672-1.5 1.5h3c0-.828-.672-1.5-1.5-1.5zM24 30c-6.627 0-12 5.373-12 12h9c0-1.657 1.343-3 3-3s3 1.343 3 3h9c0-6.627-5.373-12-12-12zm-12-9c-.49 0-.967-.047-1.43-.136L16 31.124c1.75-1.29 3.821-2.166 6.072-2.488l-5.085-9.535C15.663 20.282 13.915 21 12 21zm0-13.5c-3.314 0-6 2.686-6 6s2.686 6 6 6 6-2.686 6-6-2.686-6-6-6zM33.124 12H19.35c.098.485.15.986.15 1.5H33c0-.511.043-1.012.124-1.5z"/>
                        </g>
                    </g>
                </g>
            </g>
        </g>
    </g>
</svg>
