<svg xmlns="http://www.w3.org/2000/svg" width="72" height="72" viewBox="0 0 72 72">
    <defs>
        <linearGradient id="1j7nvv158a" x1="10.137%" x2="89.863%" y1="100%" y2="0%">
            <stop offset="0%" stop-color="#FF444F"/>
            <stop offset="100%" stop-color="#FF6444"/>
        </linearGradient>
    </defs>
    <g fill="none" fill-rule="evenodd">
        <g>
            <g>
                <g>
                    <g>
                        <g transform="translate(-1015.000000, -853.000000) translate(0.000000, 673.000000) translate(349.000000, 180.000000) translate(612.000000, 0.000000) translate(54.000000, 0.000000)">
                            <circle cx="36" cy="36" r="36" fill="#F5F7FA"/>
                            <g fill="url(#1j7nvv158a)" transform="translate(12.000000, 12.000000)">
                                <path d="M17.02 21.341l.113.002.145.024c.385.097.665.438.68.838l-.002.11L17.314 30h2.643c.106 0 .211.019.31.055l.096.042.12.073c.373.269.478.769.264 1.161l-.06.096-9.263 12.825c-.185.256-.49.396-.804.37-.458-.038-.807-.412-.825-.859l.002-.113.637-7.65H7.057c-.113 0-.224-.021-.327-.061l-.101-.047-.125-.082c-.362-.281-.45-.785-.221-1.17l.063-.093 10.002-12.86c.14-.18.341-.297.561-.334l.111-.012zm-.729 2.861L8.284 34.5h2.804c.41 0 .756.274.865.65l.023.104.012.146-.515 6.222 7.31-10.122h-2.119c-.41 0-.756-.274-.865-.65l-.023-.104-.012-.146.003-.075.525-6.322zm25.693-1.701C41.59 31.679 34.025 39 24.75 39c-1.194 0-2.36-.121-3.486-.352l1.007-1.342c.808.128 1.636.194 2.479.194 8.447 0 15.34-6.65 15.732-15h1.502zM24.75 4.5c5.92 0 11.144 2.982 14.25 7.527V8.25c0-.368.265-.674.615-.738l.135-.012c.368 0 .674.265.738.615l.012.135v6c0 .368-.265.674-.615.738L39.75 15h-6c-.414 0-.75-.336-.75-.75 0-.368.265-.674.615-.738l.135-.012H39v-.002l-.832.001C35.396 8.999 30.423 6 24.75 6 16.052 6 9 13.052 9 21.75c0 .218.004.435.013.65l-1.36 1.662c-.1-.756-.153-1.528-.153-2.312 0-9.527 7.723-17.25 17.25-17.25zm0 7.5c.368 0 .674.265.738.615l.012.135v8.413l5.432 1.36c.357.089.59.42.567.775l-.021.134c-.09.357-.421.59-.776.567l-.134-.021-6-1.5c-.292-.073-.508-.312-.557-.601L24 21.75v-9c0-.414.336-.75.75-.75z"/>
                            </g>
                        </g>
                    </g>
                </g>
            </g>
        </g>
    </g>
</svg>
