<svg xmlns="http://www.w3.org/2000/svg" width="72" height="72" viewBox="0 0 72 72">
    <defs>
        <linearGradient id="v7ckt1wrva" x1="0%" x2="100%" y1="93.556%" y2="6.444%">
            <stop offset="0%" stop-color="#FF444F"/>
            <stop offset="100%" stop-color="#FF6444"/>
        </linearGradient>
    </defs>
    <g fill="none" fill-rule="evenodd">
        <g>
            <g>
                <g>
                    <g>
                        <g transform="translate(-709.000000, -853.000000) translate(0.000000, 673.000000) translate(349.000000, 180.000000) translate(306.000000, 0.000000) translate(54.000000, 0.000000)">
                            <circle cx="36" cy="36" r="36" fill="#F5F7FA"/>
                            <g fill="url(#v7ckt1wrva)" transform="translate(12.000000, 12.000000)">
                                <path d="M33.75 3c2.071 0 3.75 1.679 3.75 3.75 0 .81-.256 1.559-.692 2.172l6.409 12.107c1.85.23 3.283 1.808 3.283 3.721 0 1.922-1.446 3.506-3.31 3.724l-6.37 10.62c.428.61.68 1.354.68 2.156 0 2.071-1.679 3.75-3.75 3.75-1.814 0-3.327-1.288-3.675-3h-12.15c-.348 1.712-1.861 3-3.675 3-2.071 0-3.75-1.679-3.75-3.75 0-.656.169-1.273.465-1.81l-6.17-10.967C2.94 28.248 1.5 26.667 1.5 24.75c0-1.913 1.432-3.491 3.283-3.721l6.41-12.107c-.437-.613-.693-1.363-.693-2.172C10.5 4.679 12.179 3 14.25 3c1.814 0 3.328 1.289 3.675 3h12.15c.347-1.711 1.86-3 3.675-3zm0 36c-1.243 0-2.25 1.007-2.25 2.25s1.007 2.25 2.25 2.25S36 42.493 36 41.25 34.993 39 33.75 39zm-19.5 0C13.007 39 12 40.007 12 41.25s1.007 2.25 2.25 2.25 2.25-1.007 2.25-2.25S15.493 39 14.25 39zM24 28.5c-.493 0-.968-.08-1.412-.226l-6.19 9.902c.773.541 1.333 1.367 1.527 2.324h12.15c.194-.957.754-1.783 1.527-2.324l-6.19-9.902c-.444.147-.919.226-1.412.226zm-4.244-2.999H8.925c-.27 1.324-1.236 2.394-2.5 2.811l5.587 9.929c.625-.466 1.4-.741 2.238-.741.259 0 .511.026.756.076L21.26 27.57c-.683-.525-1.21-1.241-1.504-2.069zm19.32 0H28.243c-.293.828-.821 1.544-1.504 2.069l6.254 10.006c.245-.05.497-.076.756-.076.713 0 1.38.2 1.948.545l5.846-9.743c-1.249-.424-2.202-1.488-2.469-2.801zM24 21c-1.657 0-3 1.343-3 3s1.343 3 3 3 3-1.343 3-3-1.343-3-3-3zm18.75 1.5c-1.243 0-2.25 1.007-2.25 2.25S41.507 27 42.75 27 45 25.993 45 24.75s-1.007-2.25-2.25-2.25zm-37.5 0C4.007 22.5 3 23.507 3 24.75S4.007 27 5.25 27s2.25-1.007 2.25-2.25-1.007-2.25-2.25-2.25zm28.5-12c-.259 0-.511-.026-.756-.076L26.74 20.43c1.07.823 1.76 2.116 1.76 3.57h10.575c.27-1.333 1.249-2.41 2.526-2.82L35.667 9.973c-.56.334-1.217.526-1.917.526zm-21.417-.526L6.399 21.179c1.277.411 2.256 1.488 2.526 2.821H19.5c0-1.492.727-2.815 1.845-3.634L16.153 9.982c-.558.33-1.208.518-1.903.518-.7 0-1.356-.192-1.917-.526zM30.075 7.5h-12.15c-.106.523-.322 1.007-.622 1.427l5.383 10.767c.416-.127.857-.195 1.314-.195.493 0 .968.08 1.412.226l6.19-9.902c-.773-.541-1.332-1.366-1.527-2.323zM33.75 4.5c-1.243 0-2.25 1.007-2.25 2.25S32.507 9 33.75 9 36 7.993 36 6.75 34.993 4.5 33.75 4.5zm-19.5 0C13.007 4.5 12 5.507 12 6.75S13.007 9 14.25 9s2.25-1.007 2.25-2.25-1.007-2.25-2.25-2.25z"/>
                            </g>
                        </g>
                    </g>
                </g>
            </g>
        </g>
    </g>
</svg>
