<svg xmlns="http://www.w3.org/2000/svg" width="64" height="60"><defs><linearGradient id="a" x1="0%" x2="100%" y1="93.945%" y2="6.055%"><stop offset="0%" stop-color="#FF444F"/><stop offset="100%" stop-color="#FF6444"/></linearGradient></defs><g fill="none" fill-rule="evenodd"><path d="M0-2h64v64H0z"/><path fill="url(#a)" d="M13 16a1 1 0 0 1 .117 1.993L13 18H5a1 1 0 0 0-.993.883L4 19v34h2V23a3 3 0 0 1 2.824-2.995L9 20h4a1 1 0 0 1 .117 1.993L13 22H9a1 1 0 0 0-.993.883L8 23v30h16l.001.073c.4.111.757.345 1.02.672l.108.146L26.535 56h10.93l1.406-2.11c.27-.403.672-.69 1.129-.817V53h16V23a1 1 0 0 0-.883-.993L55 22h-4a1 1 0 0 1-.117-1.993L51 20h4a3 3 0 0 1 2.995 2.824L58 23v30h2V19a1 1 0 0 0-.883-.993L59 18h-8a1 1 0 0 1-.117-1.993L51 16h8a3 3 0 0 1 2.995 2.824L62 19v34c1.054 0 1.918.816 1.995 1.85L64 55v5a2.001 2.001 0 0 1-1.85 1.995L62 62H2a2.001 2.001 0 0 1-1.995-1.85L0 60v-5c0-1.054.816-1.918 1.85-1.995L2 53V19a3 3 0 0 1 2.824-2.995L5 16h8zm10.465 39H2v5h60v-5H40.535l-1.406 2.11c-.34.51-.893.833-1.498.883l-.166.007h-10.93c-.613 0-1.189-.28-1.566-.756l-.098-.135L23.465 55zM27 2c1.306 0 2.418.835 2.83 2H44a3 3 0 0 1 2.995 2.824L47 7v1.671a3.003 3.003 0 0 1 1.994 2.635L49 11.5V28a3 3 0 0 1-2.824 2.995L46 31H18a3 3 0 0 1-2.995-2.824L15 28V5a3 3 0 0 1 2.824-2.995L18 2h9zm0 2h-9a1 1 0 0 0-.993.883L17 5v23a1 1 0 0 0 .883.993L18 29h28a1 1 0 0 0 .993-.883L47 28V11.5a1 1 0 0 0-.883-.993L46 10.5H31a3 3 0 0 1-2.995-2.824L28 7.5V5a1 1 0 0 0-1-1zm6.294 10.259a1 1 0 0 1 .707 1.225l-2.07 7.727a1 1 0 0 1-1.932-.518l2.07-7.727a1 1 0 0 1 1.225-.707zm-5.597 1.024a1 1 0 0 1 .102 1.318l-.082.096-2.303 2.37 2.282 2.215a1 1 0 0 1 .103 1.319l-.081.095a1 1 0 0 1-1.319.103l-.095-.081-3-2.912a1 1 0 0 1-.103-1.319l.082-.095 3-3.089a1 1 0 0 1 1.414-.02zm9.927-.064.093.084 3 3.089.082.095a1 1 0 0 1-.018 1.226l-.085.093-3 2.912-.095.081a1 1 0 0 1-1.226-.018l-.093-.085-.081-.095a1 1 0 0 1 .018-1.226l.085-.093 2.282-2.215-2.303-2.37-.082-.096a1 1 0 0 1 1.423-1.382zM44 6H30v1.5a1 1 0 0 0 .883.993L31 8.5h14V7a1 1 0 0 0-.883-.993L44 6z" transform="translate(0 -2)"/></g></svg>