<svg width="13" height="8" viewBox="0 0 13 8" fill="none" xmlns="http://www.w3.org/2000/svg">
<path d="M0.520996 4C0.520996 3.72386 0.744855 3.5 1.021 3.5H10.813L8.16744 0.853554C7.99388 0.679988 7.97459 0.410563 8.10959 0.215695L8.16744 0.146447C8.36271 -0.0488155 8.67929 -0.0488155 8.87455 0.146447L12.3746 3.64645C12.3786 3.65053 12.3826 3.65468 12.3866 3.65887C12.3981 3.67118 12.4091 3.68425 12.4194 3.69786C12.4282 3.70939 12.4364 3.72117 12.444 3.73319C12.451 3.74432 12.4577 3.75595 12.464 3.76787C12.4712 3.78173 12.4776 3.79546 12.4834 3.80941C12.4886 3.82198 12.4934 3.83526 12.4977 3.8488C12.5025 3.86417 12.5066 3.87953 12.5099 3.89501C12.5172 3.9287 12.521 3.9639 12.521 4L12.5158 3.9281C12.5183 3.94513 12.5199 3.96227 12.5206 3.97943L12.521 4C12.521 4.00682 12.5209 4.01361 12.5206 4.02036C12.5199 4.03707 12.5183 4.05454 12.5158 4.0719C12.5142 4.08338 12.5122 4.09437 12.5099 4.10523C12.5066 4.12047 12.5025 4.13584 12.4978 4.15101C12.4934 4.16474 12.4886 4.17803 12.4832 4.19104C12.4776 4.20454 12.4712 4.21828 12.4642 4.23176C12.4577 4.24405 12.451 4.25568 12.4438 4.26701C12.4245 4.29759 12.4014 4.32672 12.3746 4.35355L12.4194 4.30214C12.4091 4.31575 12.3981 4.32882 12.3864 4.34129L12.3746 4.35355L8.87455 7.85355C8.67929 8.04882 8.36271 8.04882 8.16744 7.85355C7.97218 7.65829 7.97218 7.34171 8.16744 7.14645L10.813 4.5H1.021C0.775537 4.5 0.571389 4.32313 0.529053 4.08988L0.520996 4Z" fill="#FF444F"/>
</svg>
